/* XPM */
static char * close_prelight_xpm[] = {
"28 28 39 1",
" 	c None",
".	c #EEEFF1",
"+	c #E7E8EB",
"@	c #E6CED3",
"#	c #E06A73",
"$	c #DF3F4A",
"%	c #DF3843",
"&	c #DF3F4B",
"*	c #E16A74",
"=	c #E49098",
"-	c #E03842",
";	c #EF4B52",
">	c #F25056",
",	c #E39097",
"'	c #E33C47",
")	c #E33C46",
"!	c #E84A50",
"~	c #DD434B",
"{	c #DF3742",
"]	c #E6CFD3",
"^	c #A21F2D",
"/	c #D63F47",
"(	c #EE4A51",
"_	c #E26B74",
":	c #D64048",
"<	c #A21E2C",
"[	c #D53D46",
"}	c #DF404A",
"|	c #E03944",
"1	c #A11E2C",
"2	c #A11D2B",
"3	c #DF3943",
"4	c #DF3842",
"5	c #EE4A52",
"6	c #E26C75",
"7	c #E5D0D5",
"8	c #E33B46",
"9	c #E3939A",
"0	c #DD404C",
"............................",
"++++++++++++++++++++++++++++",
"++++++++++++++++++++++++++++",
"++++++++++++++++++++++++++++",
"++++++++++++++++++++++++++++",
"++++++++++++++++++++++++++++",
"++++++++++++++++++++++++++++",
"++++++++++@#$%%&*@++++++++++",
"+++++++++=-;>>>>;-,+++++++++",
"++++++++='>>>>>>>>),++++++++",
"+++++++@->!~>>>>~!>{]+++++++",
"+++++++#;>~^/>>/^~>(_+++++++",
"+++++++$>>>:<[:<[>>>}+++++++",
"+++++++|>>>>:12[>>>>3+++++++",
"+++++++3>>>>:11[>>>>4+++++++",
"+++++++$>>>:<[:<[>>>}+++++++",
"+++++++*5>~^/>>/^~>(6+++++++",
"+++++++@->!~>>>>~!>%7+++++++",
"++++++++,)>>>>>>>>89++++++++",
"+++++++++,{(>>>>(%9+++++++++",
"++++++++++]_0||067++++++++++",
"++++++++++++++++++++++++++++",
"++++++++++++++++++++++++++++",
"++++++++++++++++++++++++++++",
"++++++++++++++++++++++++++++",
"++++++++++++++++++++++++++++",
"++++++++++++++++++++++++++++",
"++++++++++++++++++++++++++++"};
