/* XPM */
static char * close_inactive_xpm[] = {
"28 28 21 1",
" 	c None",
".	c #EEEFF1",
"+	c #E7E8EB",
"@	c #DEDFE2",
"#	c #BFC0C2",
"$	c #BCBCBD",
"%	c #BEBEBF",
"&	c #BBBBBC",
"*	c #C0C1C4",
"=	c #CACCCE",
"-	c #D0D0D0",
";	c #D4D4D4",
">	c #BFBFC0",
",	c #CACBCE",
"'	c #C4C4C4",
")	c #DFE0E2",
"!	c #C1C2C4",
"~	c #C1C2C5",
"{	c #BDBDBE",
"]	c #C3C3C3",
"^	c #CBCCCF",
"............................",
"++++++++++++++++++++++++++++",
"++++++++++++++++++++++++++++",
"++++++++++++++++++++++++++++",
"++++++++++++++++++++++++++++",
"++++++++++++++++++++++++++++",
"++++++++++++++++++++++++++++",
"++++++++++@#$%%&*@++++++++++",
"+++++++++=%-;;;;->,+++++++++",
"++++++++=';;;;;;;;',++++++++",
"+++++++@%;;;;;;;;;;%)+++++++",
"+++++++#-;;;;;;;;;;-!+++++++",
"+++++++&;;;;;;;;;;;;&+++++++",
"+++++++>;;;;;;;;;;;;>+++++++",
"+++++++>;;;;;;;;;;;;>+++++++",
"+++++++$;;;;;;;;;;;;&+++++++",
"+++++++*-;;;;;;;;;;-~+++++++",
"+++++++@>;;;;;;;;;;{)+++++++",
"++++++++,';;;;;;;;]^++++++++",
"+++++++++,%-;;;;-{^+++++++++",
"++++++++++)!{>>{~)++++++++++",
"++++++++++++++++++++++++++++",
"++++++++++++++++++++++++++++",
"++++++++++++++++++++++++++++",
"++++++++++++++++++++++++++++",
"++++++++++++++++++++++++++++",
"++++++++++++++++++++++++++++",
"++++++++++++++++++++++++++++"};
