/* XPM */
static char * close_active_xpm[] = {
"28 28 30 1",
" 	c None",
".	c #EEEFF1",
"+	c #E7E8EB",
"@	c #E6CCD0",
"#	c #E0626B",
"$	c #DF3B46",
"%	c #DF3743",
"&	c #DF3B47",
"*	c #E1626C",
"=	c #E38990",
"-	c #E03741",
";	c #EF4B52",
">	c #F25056",
",	c #E38A91",
"'	c #E33C47",
")	c #E33C46",
"!	c #DF3641",
"~	c #EE4A51",
"{	c #E2636D",
"]	c #DF3D46",
"^	c #E03843",
"/	c #DF3842",
"(	c #DF3741",
"_	c #EE4A52",
":	c #E1646D",
"<	c #DF3742",
"[	c #E5CED2",
"}	c #E33B46",
"|	c #E28C93",
"1	c #DD3C48",
"............................",
"++++++++++++++++++++++++++++",
"++++++++++++++++++++++++++++",
"++++++++++++++++++++++++++++",
"++++++++++++++++++++++++++++",
"++++++++++++++++++++++++++++",
"++++++++++++++++++++++++++++",
"++++++++++@#$%%&*@++++++++++",
"+++++++++=-;>>>>;-,+++++++++",
"++++++++='>>>>>>>>),++++++++",
"+++++++@->>>>>>>>>>!@+++++++",
"+++++++#;>>>>>>>>>>~{+++++++",
"+++++++$>>>>>>>>>>>>]+++++++",
"+++++++^>>>>>>>>>>>>/+++++++",
"+++++++/>>>>>>>>>>>>(+++++++",
"+++++++$>>>>>>>>>>>>]+++++++",
"+++++++*_>>>>>>>>>>~:+++++++",
"+++++++@->>>>>>>>>><[+++++++",
"++++++++,)>>>>>>>>}|++++++++",
"+++++++++,!~>>>>~<|+++++++++",
"++++++++++@{1^^1:[++++++++++",
"++++++++++++++++++++++++++++",
"++++++++++++++++++++++++++++",
"++++++++++++++++++++++++++++",
"++++++++++++++++++++++++++++",
"++++++++++++++++++++++++++++",
"++++++++++++++++++++++++++++",
"++++++++++++++++++++++++++++"};
