/* XPM */
static char * close_pressed_xpm[] = {
"28 28 30 1",
" 	c None",
".	c #EEEFF1",
"+	c #E7E8EB",
"@	c #E6C7CD",
"#	c #E0545F",
"$	c #D82D3A",
"%	c #D52735",
"&	c #E05660",
"*	c #E37E86",
"=	c #D62735",
"-	c #E27F87",
";	c #D42735",
">	c #CE2633",
",	c #C82432",
"'	c #E6C9CD",
")	c #C82433",
"!	c #A11D2C",
"~	c #C32431",
"{	c #E15761",
"]	c #C32432",
"^	c #A11D2B",
"/	c #C22331",
"(	c #D92E3A",
"_	c #D62736",
":	c #A01D2B",
"<	c #E15861",
"[	c #D52835",
"}	c #E5CACE",
"|	c #E18189",
"1	c #D82E3A",
"............................",
"++++++++++++++++++++++++++++",
"++++++++++++++++++++++++++++",
"++++++++++++++++++++++++++++",
"++++++++++++++++++++++++++++",
"++++++++++++++++++++++++++++",
"++++++++++++++++++++++++++++",
"++++++++++@#$%%$&@++++++++++",
"+++++++++*=%%%%%%=-+++++++++",
"++++++++*;%%%%%%%%%-++++++++",
"+++++++@=%>,%%%%,>%%'+++++++",
"+++++++#%%)!~%%~!)%%{+++++++",
"+++++++$%%%]^/]^/%%%(+++++++",
"+++++++_%%%%]:^/%%%%%+++++++",
"+++++++%%%%%]::/%%%%%+++++++",
"+++++++$%%%]^/]^/%%%(+++++++",
"+++++++&%%,!~%%~!)%%<+++++++",
"+++++++@=%>,%%%%,>%[}+++++++",
"++++++++-%%%%%%%%%%|++++++++",
"+++++++++-%%%%%%%[|+++++++++",
"++++++++++'{1__1<}++++++++++",
"++++++++++++++++++++++++++++",
"++++++++++++++++++++++++++++",
"++++++++++++++++++++++++++++",
"++++++++++++++++++++++++++++",
"++++++++++++++++++++++++++++",
"++++++++++++++++++++++++++++",
"++++++++++++++++++++++++++++"};
