/* XPM */
static char * hide_prelight_xpm[] = {
"28 28 32 1",
" 	c None",
".	c #EEEFF1",
"+	c #E7E8EB",
"@	c #E4E0D5",
"#	c #DABC73",
"$	c #DFAE36",
"%	c #E5AE23",
"&	c #DFAF36",
"*	c #DBBD75",
"=	c #DDCB9D",
"-	c #E4AC23",
";	c #F6C031",
">	c #FAC536",
",	c #E4AD23",
"'	c #DDCA9E",
")	c #EAB224",
"!	c #E9B124",
"~	c #E3AC23",
"{	c #E4E0D6",
"]	c #DBBE76",
"^	c #DFAD35",
"/	c #DFAD36",
"(	c #DDA62C",
"_	c #BF8422",
":	c #DDA62D",
"<	c #E4AD24",
"[	c #DBBE77",
"}	c #E3AC24",
"|	c #E4DFD7",
"1	c #E9B223",
"2	c #DECBA0",
"3	c #DEAE37",
"............................",
"++++++++++++++++++++++++++++",
"++++++++++++++++++++++++++++",
"++++++++++++++++++++++++++++",
"++++++++++++++++++++++++++++",
"++++++++++++++++++++++++++++",
"++++++++++++++++++++++++++++",
"++++++++++@#$%%&*@++++++++++",
"+++++++++=-;>>>>;,'+++++++++",
"++++++++=)>>>>>>>>!'++++++++",
"+++++++@->>>>>>>>>>~{+++++++",
"+++++++#;>>>>>>>>>>;]+++++++",
"+++++++^>>>>>>>>>>>>/+++++++",
"+++++++%>(________(>-+++++++",
"+++++++->(________:><+++++++",
"+++++++$>>>>>>>>>>>>/+++++++",
"+++++++*;>>>>>>>>>>;[+++++++",
"+++++++@,>>>>>>>>>>}|+++++++",
"++++++++'!>>>>>>>>12++++++++",
"+++++++++'~;>>>>;}2+++++++++",
"++++++++++{]3%%3[|++++++++++",
"++++++++++++++++++++++++++++",
"++++++++++++++++++++++++++++",
"++++++++++++++++++++++++++++",
"++++++++++++++++++++++++++++",
"++++++++++++++++++++++++++++",
"++++++++++++++++++++++++++++",
"++++++++++++++++++++++++++++"};
