/* XPM */
static char * hide_pressed_xpm[] = {
"28 28 30 1",
" 	c None",
".	c #EEEFF1",
"+	c #E7E8EB",
"@	c #E9E4DB",
"#	c #F0D58C",
"$	c #F7CA50",
"%	c #F9C439",
"&	c #F7CA51",
"*	c #F0D78E",
"=	c #EDDCAE",
"-	c #F9C63C",
";	c #FAC536",
">	c #F9C73C",
",	c #ECDCAF",
"'	c #F9C536",
")	c #F9C436",
"!	c #F8C63C",
"~	c #E8E4DB",
"{	c #F0D68F",
"]	c #F7C951",
"^	c #F9C63B",
"/	c #DDA62C",
"(	c #BF8422",
"_	c #F8C53B",
":	c #DDA62D",
"<	c #F1D78E",
"[	c #F9C63D",
"}	c #E8E4DC",
"|	c #ECDCB0",
"1	c #F7CA53",
"............................",
"++++++++++++++++++++++++++++",
"++++++++++++++++++++++++++++",
"++++++++++++++++++++++++++++",
"++++++++++++++++++++++++++++",
"++++++++++++++++++++++++++++",
"++++++++++++++++++++++++++++",
"++++++++++@#$%%&*@++++++++++",
"+++++++++=-;;;;;;>,+++++++++",
"++++++++=';;;;;;;;),++++++++",
"+++++++@-;;;;;;;;;;!~+++++++",
"+++++++#;;;;;;;;;;;;{+++++++",
"+++++++$;;;;;;;;;;;;]+++++++",
"+++++++^;/((((((((/;_+++++++",
"+++++++_;/((((((((:;-+++++++",
"+++++++$;;;;;;;;;;;;]+++++++",
"+++++++*;;;;;;;;;;;;<+++++++",
"+++++++@>;;;;;;;;;;[}+++++++",
"++++++++,);;;;;;;;'|++++++++",
"+++++++++,!;;;;;;[|+++++++++",
"++++++++++~{1^^1<}++++++++++",
"++++++++++++++++++++++++++++",
"++++++++++++++++++++++++++++",
"++++++++++++++++++++++++++++",
"++++++++++++++++++++++++++++",
"++++++++++++++++++++++++++++",
"++++++++++++++++++++++++++++",
"++++++++++++++++++++++++++++"};
