/* XPM */
static char * hide_active_xpm[] = {
"28 28 30 1",
" 	c None",
".	c #EEEFF1",
"+	c #E7E8EB",
"@	c #E6E1D7",
"#	c #E0C178",
"$	c #E2B038",
"%	c #E6AE23",
"&	c #E1B139",
"*	c #E1C37A",
"=	c #E3CFA1",
"-	c #E5AD24",
";	c #F6C031",
">	c #FAC536",
",	c #E5AE24",
"'	c #E3CFA2",
")	c #EAB224",
"!	c #E9B124",
"~	c #E4AD24",
"{	c #E6E1D8",
"]	c #E1C37B",
"^	c #E2B037",
"/	c #E1B039",
"(	c #E6AE24",
"_	c #E5AC24",
":	c #E5AE25",
"<	c #E0C37C",
"[	c #E4AD25",
"}	c #E5E1D9",
"|	c #E9B223",
"1	c #E2D0A4",
"............................",
"++++++++++++++++++++++++++++",
"++++++++++++++++++++++++++++",
"++++++++++++++++++++++++++++",
"++++++++++++++++++++++++++++",
"++++++++++++++++++++++++++++",
"++++++++++++++++++++++++++++",
"++++++++++@#$%%&*@++++++++++",
"+++++++++=-;>>>>;,'+++++++++",
"++++++++=)>>>>>>>>!'++++++++",
"+++++++@->>>>>>>>>>~{+++++++",
"+++++++#;>>>>>>>>>>;]+++++++",
"+++++++^>>>>>>>>>>>>/+++++++",
"+++++++(>>>>>>>>>>>>_+++++++",
"+++++++_>>>>>>>>>>>>:+++++++",
"+++++++$>>>>>>>>>>>>/+++++++",
"+++++++*;>>>>>>>>>>;<+++++++",
"+++++++@,>>>>>>>>>>[}+++++++",
"++++++++'!>>>>>>>>|1++++++++",
"+++++++++'~;>>>>;[1+++++++++",
"++++++++++{]&((&<}++++++++++",
"++++++++++++++++++++++++++++",
"++++++++++++++++++++++++++++",
"++++++++++++++++++++++++++++",
"++++++++++++++++++++++++++++",
"++++++++++++++++++++++++++++",
"++++++++++++++++++++++++++++",
"++++++++++++++++++++++++++++"};
