/* XPM */
static char * maximize_pressed_xpm[] = {
"28 28 43 1",
" 	c None",
".	c #EEEFF1",
"+	c #E7E8EB",
"@	c #D5E4D9",
"#	c #78D480",
"$	c #32C63B",
"%	c #19C224",
"&	c #33C63D",
"*	c #7AD481",
"=	c #A0DAA6",
"-	c #1AC225",
";	c #13C11E",
">	c #A0DBA7",
",	c #13C01E",
"'	c #10A416",
")	c #0F9310",
"!	c #0E9711",
"~	c #12B91C",
"{	c #13BD1C",
"]	c #0C860C",
"^	c #0B7407",
"/	c #0F9912",
"(	c #7BD481",
"_	c #31C53A",
":	c #11A716",
"<	c #13BC1C",
"[	c #0F9812",
"}	c #33C73D",
"|	c #1AC325",
"1	c #0D840C",
"2	c #12BE1D",
"3	c #0D870D",
"4	c #1AC224",
"5	c #1BC225",
"6	c #0D850C",
"7	c #11A816",
"8	c #7CD583",
"9	c #0E9611",
"0	c #10A415",
"a	c #1BC326",
"b	c #D5E4DA",
"c	c #A2DBA9",
"d	c #34C73E",
"............................",
"++++++++++++++++++++++++++++",
"++++++++++++++++++++++++++++",
"++++++++++++++++++++++++++++",
"++++++++++++++++++++++++++++",
"++++++++++++++++++++++++++++",
"++++++++++++++++++++++++++++",
"++++++++++@#$%%&*@++++++++++",
"+++++++++=-;;;;;;->+++++++++",
"++++++++=;;;;;;;;;,>++++++++",
"+++++++@-;;;')))!~;-@+++++++",
"+++++++#;;;;{]^^^/;;(+++++++",
"+++++++_;;:<;{]^^[;;}+++++++",
"+++++++|;;[1<;23^[;;4+++++++",
"+++++++4;;[^1<;23[;;5+++++++",
"+++++++$;;[^^6{;{7;;}+++++++",
"+++++++*;;/^^^6{;;;;8+++++++",
"+++++++@-;~9)))0;;;ab+++++++",
"++++++++>,;;;;;;;;;c++++++++",
"+++++++++>-;;;;;;ac+++++++++",
"++++++++++@(d||d8b++++++++++",
"++++++++++++++++++++++++++++",
"++++++++++++++++++++++++++++",
"++++++++++++++++++++++++++++",
"++++++++++++++++++++++++++++",
"++++++++++++++++++++++++++++",
"++++++++++++++++++++++++++++",
"++++++++++++++++++++++++++++"};
