/* XPM */
static char * maximize_prelight_xpm[] = {
"28 28 47 1",
" 	c None",
".	c #EEEFF1",
"+	c #E7E8EB",
"@	c #D5E4D9",
"#	c #78D481",
"$	c #3ACF45",
"%	c #27D033",
"&	c #3BCF45",
"*	c #7AD481",
"=	c #A0DAA6",
"-	c #27CF34",
";	c #34E544",
">	c #39EA49",
",	c #27CF33",
"'	c #A0DBA7",
")	c #27D634",
"!	c #26D534",
"~	c #28BE31",
"{	c #1EA421",
"]	c #1FA924",
"^	c #34DE43",
"/	c #27CE33",
"(	c #37E445",
"_	c #158F16",
":	c #0B7407",
"<	c #21AD27",
"[	c #34E443",
"}	c #7BD481",
"|	c #39CE44",
"1	c #2AC333",
"2	c #37E345",
"3	c #20AA25",
"4	c #28D133",
"5	c #148C15",
"6	c #36E244",
"7	c #37E546",
"8	c #169217",
"9	c #27D132",
"0	c #27D034",
"a	c #168E15",
"b	c #2BC434",
"c	c #34E543",
"d	c #7CD583",
"e	c #1FA925",
"f	c #27BD30",
"g	c #D5E4DA",
"h	c #A2DBA9",
"............................",
"++++++++++++++++++++++++++++",
"++++++++++++++++++++++++++++",
"++++++++++++++++++++++++++++",
"++++++++++++++++++++++++++++",
"++++++++++++++++++++++++++++",
"++++++++++++++++++++++++++++",
"++++++++++@#$%%&*@++++++++++",
"+++++++++=-;>>>>;,'+++++++++",
"++++++++=)>>>>>>>>!'++++++++",
"+++++++@->>>~{{{]^>/@+++++++",
"+++++++#;>>>(_:::<>[}+++++++",
"+++++++|>>12>(_::3>>$+++++++",
"+++++++4>>356>78:3>>9+++++++",
"+++++++9>>3:56>783>>0+++++++",
"+++++++$>>3::a2>(b>>$+++++++",
"+++++++*c><:::a2>>>[d+++++++",
"+++++++@,>^e{{{f>>>-g+++++++",
"++++++++'!>>>>>>>>!h++++++++",
"+++++++++'/[>>>>[-h+++++++++",
"++++++++++@}&44&dg++++++++++",
"++++++++++++++++++++++++++++",
"++++++++++++++++++++++++++++",
"++++++++++++++++++++++++++++",
"++++++++++++++++++++++++++++",
"++++++++++++++++++++++++++++",
"++++++++++++++++++++++++++++",
"++++++++++++++++++++++++++++"};
