/* XPM */
static char * maximize_active_xpm[] = {
"28 28 28 1",
" 	c None",
".	c #EEEFF1",
"+	c #E7E8EB",
"@	c #D5E4D9",
"#	c #78D481",
"$	c #3ACF45",
"%	c #27D033",
"&	c #3BCF45",
"*	c #7AD481",
"=	c #A0DAA6",
"-	c #27CF34",
";	c #34E544",
">	c #39EA49",
",	c #27CF33",
"'	c #A0DBA7",
")	c #27D634",
"!	c #26D534",
"~	c #27CE33",
"{	c #34E443",
"]	c #7BD481",
"^	c #39CE44",
"/	c #28D133",
"(	c #27D132",
"_	c #27D034",
":	c #34E543",
"<	c #7CD583",
"[	c #D5E4DA",
"}	c #A2DBA9",
"............................",
"++++++++++++++++++++++++++++",
"++++++++++++++++++++++++++++",
"++++++++++++++++++++++++++++",
"++++++++++++++++++++++++++++",
"++++++++++++++++++++++++++++",
"++++++++++++++++++++++++++++",
"++++++++++@#$%%&*@++++++++++",
"+++++++++=-;>>>>;,'+++++++++",
"++++++++=)>>>>>>>>!'++++++++",
"+++++++@->>>>>>>>>>~@+++++++",
"+++++++#;>>>>>>>>>>{]+++++++",
"+++++++^>>>>>>>>>>>>$+++++++",
"+++++++/>>>>>>>>>>>>(+++++++",
"+++++++(>>>>>>>>>>>>_+++++++",
"+++++++$>>>>>>>>>>>>$+++++++",
"+++++++*:>>>>>>>>>>{<+++++++",
"+++++++@,>>>>>>>>>>-[+++++++",
"++++++++'!>>>>>>>>!}++++++++",
"+++++++++'~{>>>>{-}+++++++++",
"++++++++++@]&//&<[++++++++++",
"++++++++++++++++++++++++++++",
"++++++++++++++++++++++++++++",
"++++++++++++++++++++++++++++",
"++++++++++++++++++++++++++++",
"++++++++++++++++++++++++++++",
"++++++++++++++++++++++++++++",
"++++++++++++++++++++++++++++"};
